<svg xmlns="http://www.w3.org/2000/svg" style="background-color:rgb(255, 255, 255)" width="401" height="286" viewBox="-0.5 -0.5 401 286" xmlns:v="https://vecta.io/nano"><style><![CDATA[.B{pointer-events:all}.C{font-family:Helvetica}.D{text-anchor:middle}.E{stroke:#000}.F{fill:#fff}.G{stroke-miterlimit:10}.H{fill:none}.I{pointer-events:stroke}.J{font-size:11px}.K{fill:#000}.L{font-size:12px}.M{fill:#cdeb8b}.N{stroke:#36393d}]]></style><g class="E G"><path d="M160 215q0 0 0 33.63" class="H I"/><path d="M160 253.88l-3.5-7 3.5 1.75 3.5-1.75z" class="B"/></g><g class="C D J"><path d="M112 229h97v14h-97z" class="F"/><text x="159.79" y="239">Consists of multiple</text></g><path d="M110 185h100v30H110z" class="B M N"/><text x="159.5" y="204.5" class="C D K L">Entity</text><path d="M110 255h100v30H110z" class="B E F"/><text x="159.5" y="274.5" class="C D K L">Component</text><path d="M110 95h100v30H110z" class="B M N"/><text x="159.5" y="114.5" class="C D K L">Engine</text><path d="M290 0h110v30H290z" class="B M N"/><text x="344.5" y="19.5" class="C D K L">Signal</text><g class="E G"><path d="M160 125q0 0 0 53.63" class="H I"/><path d="M160 183.88l-3.5-7 3.5 1.75 3.5-1.75z" class="B"/></g><g class="C D J"><path d="M137 149h47v14h-47z" class="F"/><text x="159.79" y="159.43">Manages</text></g><g class="E G"><path d="M185 95q0-32.51 66.26-32.51 66.25 0 66.24-26.12" class="H I"/><path d="M317.5 31.12l3.5 7-3.5-1.75-3.5 1.75z" class="B"/></g><g class="C D J"><path d="M235 60h30v14h-30z" class="F"/><text x="249.41" y="69.77">Emits</text></g><g class="E G"><path d="M210 110h73.63" class="H I"/><path d="M288.88 110l-7 3.5 1.75-3.5-1.75-3.5z" class="B"/></g><g class="C D J"><path d="M227 104h47v14h-47z" class="F"/><text x="249.64" y="114.29">Manages</text></g><g class="E G"><path d="M345 125q0 30-80 30-80 0-80 23.63" class="H I"/><path d="M185 183.88l-3.5-7 3.5 1.75 3.5-1.75z" class="B"/></g><g class="C D J"><path d="M224 149h53v14h-53z" class="F"/><text x="249.36" y="159.29">Processes</text></g><g class="E G"><path d="M345 95q0 0 0-58.63" class="H I"/><path d="M345 31.12l3.5 7-3.5-1.75-3.5 1.75z" class="B"/></g><g class="C D J"><path d="M302 69h87v14h-87z" class="F"/><text x="344.79" y="78.71">May emit/listen to</text></g><path d="M290 95h110v30H290z" class="B E F"/><text x="344.5" y="114.5" class="C D K L">System</text><g class="E G"><path d="M290 200q0 0-73.63 0" class="H I"/><path d="M211.12 200l7-3.5-1.75 3.5 1.75 3.5z" class="B"/></g><g class="C D J"><path d="M232 194h38v14h-38z" class="F"/><text x="250.07" y="204.29">Groups</text></g><path d="M290 185h110v30H290z" class="B M N"/><text x="344.5" y="204.5" class="C D K L">Family</text><g class="E G"><path d="M45 125q0 75.03 58.63 75" class="H I"/><path d="M108.88 200l-7 3.5 1.75-3.5-1.75-3.5z" class="B"/></g><g class="C D J"><path d="M33 149h56v14H33z" class="F"/><text x="59.79" y="159.14">Assembles</text></g><path stroke-dasharray="3 3" d="M0 95h90v30H0z" class="B E F"/><text x="44.5" y="114.5" class="C D K L">EntityFactory</text><g class="E G"><path d="M90 30q.03 32.49 35.03 32.49 35 0 34.98 26.14" class="H I"/><path d="M160 93.88l-3.49-7 3.5 1.75 3.5-1.74z" class="B"/></g><g class="C D J"><path d="M113 52h21v14h-21z" class="F"/><text x="122.61" y="61.77">Has</text></g><g class="E G"><path d="M120 15q0 0 163.63 0" class="H I"/><path d="M288.88 15l-7 3.5 1.75-3.5-1.75-3.5z" class="B"/></g><g class="C D J"><path d="M142 9h87v14h-87z" class="F"/><text x="184.93" y="19.29">May emit/listen to</text></g><g class="E G"><path d="M30 30q.03 32.49 7.51 32.49 7.49 0 7.49 26.14" class="H I"/><path d="M45 93.88l-3.5-7 3.5 1.75 3.5-1.75z" class="B"/></g><g class="C D J"><path d="M9 50h49v14H9z" class="F"/><text x="32.33" y="59.77">May have</text></g><path d="M0 0h120v30H0z" class="B E F"/><text x="59.5" y="19.5" class="C D K L">Game</text></svg>